<svg xmlns="http://www.w3.org/2000/svg" viewBox="0 0 512 512">
  <defs>
    <linearGradient id="mbg" x1="0" y1="0" x2="1" y2="1">
      <stop offset="0" stop-color="#1b1440"/>
      <stop offset=".55" stop-color="#4b2f9e"/>
      <stop offset="1" stop-color="#7a4fc4"/>
    </linearGradient>
    <radialGradient id="msea" cx=".35" cy=".3" r="1.1">
      <stop offset="0" stop-color="#7dd3fc"/>
      <stop offset=".55" stop-color="#2fb9ff"/>
      <stop offset="1" stop-color="#1565d8"/>
    </radialGradient>
    <linearGradient id="mland" x1="0" y1="0" x2="0" y2="1">
      <stop offset="0" stop-color="#6ee7b7"/>
      <stop offset="1" stop-color="#059669"/>
    </linearGradient>
  </defs>
  <rect width="512" height="512" fill="url(#mbg)"/>
  <g transform="translate(256 256) scale(.62) translate(-256 -256)">
    <ellipse cx="256" cy="252" rx="196" ry="86" fill="none" stroke="#ffbf2e" stroke-width="16" opacity=".9" transform="rotate(-18 256 252)"/>
    <circle cx="256" cy="252" r="148" fill="url(#msea)"/>
    <path d="M170 180c30-28 90-34 118-8s10 62-24 74-70 6-92-14-22-32-2-52z" fill="url(#mland)"/>
    <path d="M250 300c26-14 76-12 92 12s-6 56-40 60-70-4-78-28 2-32 26-44z" fill="url(#mland)"/>
    <path d="M150 320c14-10 40-8 46 6s-10 30-30 30-26-24-16-36z" fill="url(#mland)" opacity=".95"/>
    <ellipse cx="205" cy="190" rx="52" ry="30" fill="#fff" opacity=".35" transform="rotate(-24 205 190)"/>
    <circle cx="414" cy="128" r="26" fill="#ffbf2e"/>
    <path d="M414 96l9 17 19 3-14 13 4 19-18-9-18 9 4-19-14-13 19-3z" fill="#fff"/>
  </g>
</svg>
